<svg xmlns="http://www.w3.org/2000/svg" xmlns:xlink="http://www.w3.org/1999/xlink" contentStyleType="text/css" data-diagram-type="CLASS" height="316px" preserveAspectRatio="none" style="width:1342px;height:316px;background:#FFFFFF;" version="1.1" viewBox="0 0 1342 316" width="1342px" zoomAndPan="magnify"><defs/><g><!--class Aggregate--><g class="entity" data-entity="Aggregate" data-source-line="5" data-uid="ent0002" id="entity_Aggregate"><rect fill="#F1F1F1" height="129.4844" rx="2.5" ry="2.5" style="stroke:#181818;stroke-width:0.5;" width="447.1895" x="7" y="180.19"/><ellipse cx="189.7007" cy="196.19" fill="#ADD1B2" rx="11" ry="11" style="stroke:#181818;stroke-width:1;"/><path d="M193.8101,202.19 L186.0913,202.19 L186.0913,189.7994 L193.8101,189.7994 L193.8101,191.9556 L188.5444,191.9556 L188.5444,194.6275 L193.3101,194.6275 L193.3101,196.7838 L188.5444,196.7838 L188.5444,200.0338 L193.8101,200.0338 L193.8101,202.19 Z " fill="#000000"/><text fill="#000000" font-family="sans-serif" font-size="14" lengthAdjust="spacing" textLength="73.2881" x="210.2007" y="201.0367">Aggregate</text><line style="stroke:#181818;stroke-width:0.5;" x1="8" x2="453.1895" y1="212.19" y2="212.19"/><ellipse cx="18" cy="225.8384" fill="#000000" rx="3" ry="3" style="stroke:#000000;stroke-width:1;"/><text fill="#000000" font-family="sans-serif" font-size="14" lengthAdjust="spacing" textLength="133.5605" x="27" y="229.1851">aggregate_id : text</text><ellipse cx="18" cy="242.1353" fill="#000000" rx="3" ry="3" style="stroke:#000000;stroke-width:1;"/><text fill="#000000" font-family="sans-serif" font-size="14" lengthAdjust="spacing" textLength="421.1895" x="27" y="245.482">aggregate_category : enum('products','sales','transactions')</text><line style="stroke:#181818;stroke-width:1;" x1="8" x2="453.1895" y1="252.7838" y2="252.7838"/><ellipse cx="18" cy="266.4322" fill="#000000" rx="3" ry="3" style="stroke:#000000;stroke-width:1;"/><text fill="#000000" font-family="sans-serif" font-size="14" lengthAdjust="spacing" textLength="333.1563" x="27" y="269.7789">aggregate_fn : enum('RECOUNT','SUMMATION')</text><ellipse cx="18" cy="282.7291" fill="#000000" rx="3" ry="3" style="stroke:#000000;stroke-width:1;"/><text fill="#000000" font-family="sans-serif" font-size="14" lengthAdjust="spacing" textLength="185.7871" x="27" y="286.0757">aggregate_value : number</text><text fill="#000000" font-family="sans-serif" font-size="14" lengthAdjust="spacing" textLength="206.0557" x="27" y="302.3726">aggregate_last_update : date</text></g><!--class AggregateFN--><g class="entity" data-entity="AggregateFN" data-source-line="14" data-uid="ent0003" id="entity_AggregateFN"><rect fill="#F1F1F1" height="48" rx="2.5" ry="2.5" style="stroke:#181818;stroke-width:0.5;" width="123.8135" x="168.69" y="39.59"/><ellipse cx="183.69" cy="55.59" fill="#ADD1B2" rx="11" ry="11" style="stroke:#181818;stroke-width:1;"/><path d="M186.6588,61.2306 Q186.0806,61.5275 185.44,61.6681 Q184.7994,61.8244 184.0963,61.8244 Q181.5963,61.8244 180.2681,60.1838 Q178.9556,58.5275 178.9556,55.4025 Q178.9556,52.2775 180.2681,50.6213 Q181.5963,48.965 184.0963,48.965 Q184.7994,48.965 185.44,49.1213 Q186.0963,49.2775 186.6588,49.5744 L186.6588,52.2931 Q186.0338,51.715 185.44,51.4494 Q184.8463,51.1681 184.2213,51.1681 Q182.8775,51.1681 182.19,52.2463 Q181.5025,53.3088 181.5025,55.4025 Q181.5025,57.4963 182.19,58.5744 Q182.8775,59.6369 184.2213,59.6369 Q184.8463,59.6369 185.44,59.3713 Q186.0338,59.09 186.6588,58.5119 L186.6588,61.2306 Z " fill="#000000"/><text fill="#000000" font-family="sans-serif" font-size="14" lengthAdjust="spacing" textLength="91.8135" x="197.69" y="60.4367">AggregateFN</text><line style="stroke:#181818;stroke-width:0.5;" x1="169.69" x2="291.5035" y1="71.59" y2="71.59"/><line style="stroke:#181818;stroke-width:0.5;" x1="169.69" x2="291.5035" y1="79.59" y2="79.59"/></g><!--class TimeSerie--><g class="entity" data-entity="TimeSerie" data-source-line="17" data-uid="ent0005" id="entity_TimeSerie"><rect fill="#F1F1F1" height="96.8906" rx="2.5" ry="2.5" style="stroke:#181818;stroke-width:0.5;" width="447.6953" x="424.75" y="15.15"/><ellipse cx="609.1221" cy="31.15" fill="#ADD1B2" rx="11" ry="11" style="stroke:#181818;stroke-width:1;"/><path d="M613.2314,37.15 L605.5127,37.15 L605.5127,24.7594 L613.2314,24.7594 L613.2314,26.9156 L607.9658,26.9156 L607.9658,29.5875 L612.7314,29.5875 L612.7314,31.7438 L607.9658,31.7438 L607.9658,34.9938 L613.2314,34.9938 L613.2314,37.15 Z " fill="#000000"/><text fill="#000000" font-family="sans-serif" font-size="14" lengthAdjust="spacing" textLength="70.4512" x="629.6221" y="35.9967">TimeSerie</text><line style="stroke:#181818;stroke-width:0.5;" x1="425.75" x2="871.4453" y1="47.15" y2="47.15"/><ellipse cx="435.75" cy="60.7984" fill="#000000" rx="3" ry="3" style="stroke:#000000;stroke-width:1;"/><text fill="#000000" font-family="sans-serif" font-size="14" lengthAdjust="spacing" textLength="254.7207" x="444.75" y="64.1451">time_serie_id : number &#171;generated&#187;</text><line style="stroke:#181818;stroke-width:1;" x1="425.75" x2="871.4453" y1="71.4469" y2="71.4469"/><ellipse cx="435.75" cy="85.0953" fill="#000000" rx="3" ry="3" style="stroke:#000000;stroke-width:1;"/><text fill="#000000" font-family="sans-serif" font-size="14" lengthAdjust="spacing" textLength="150.2334" x="444.75" y="88.442">time_serie_slug : text</text><ellipse cx="435.75" cy="101.3922" fill="#000000" rx="3" ry="3" style="stroke:#000000;stroke-width:1;"/><text fill="#000000" font-family="sans-serif" font-size="14" lengthAdjust="spacing" textLength="421.6953" x="444.75" y="104.7389">time_serie_category : enum('products','sales','transactions')</text></g><!--class TimeSerieData--><g class="entity" data-entity="TimeSerieData" data-source-line="24" data-uid="ent0006" id="entity_TimeSerieData"><rect fill="#F1F1F1" height="113.1875" rx="2.5" ry="2.5" style="stroke:#181818;stroke-width:0.5;" width="319.2549" x="488.97" y="188.33"/><ellipse cx="592.408" cy="204.33" fill="#ADD1B2" rx="11" ry="11" style="stroke:#181818;stroke-width:1;"/><path d="M596.5174,210.33 L588.7986,210.33 L588.7986,197.9394 L596.5174,197.9394 L596.5174,200.0956 L591.2517,200.0956 L591.2517,202.7675 L596.0174,202.7675 L596.0174,204.9238 L591.2517,204.9238 L591.2517,208.1738 L596.5174,208.1738 L596.5174,210.33 Z " fill="#000000"/><text fill="#000000" font-family="sans-serif" font-size="14" lengthAdjust="spacing" textLength="103.8789" x="612.908" y="209.1767">TimeSerieData</text><line style="stroke:#181818;stroke-width:0.5;" x1="489.97" x2="807.2249" y1="220.33" y2="220.33"/><ellipse cx="499.97" cy="233.9784" fill="#000000" rx="3" ry="3" style="stroke:#000000;stroke-width:1;"/><text fill="#000000" font-family="sans-serif" font-size="14" lengthAdjust="spacing" textLength="293.2549" x="508.97" y="237.3251">time_serie_data_id : number &#171;generated&#187;</text><line style="stroke:#181818;stroke-width:1;" x1="489.97" x2="807.2249" y1="244.6269" y2="244.6269"/><ellipse cx="499.97" cy="258.2753" fill="#000000" rx="3" ry="3" style="stroke:#000000;stroke-width:1;"/><text fill="#000000" font-family="sans-serif" font-size="14" lengthAdjust="spacing" textLength="199.6436" x="508.97" y="261.622">time_serie_id : number &#171;FK&#187;</text><ellipse cx="499.97" cy="274.5722" fill="#000000" rx="3" ry="3" style="stroke:#000000;stroke-width:1;"/><text fill="#000000" font-family="sans-serif" font-size="14" lengthAdjust="spacing" textLength="224.8271" x="508.97" y="277.9189">time_serie_data_value : number</text><ellipse cx="499.97" cy="290.8691" fill="#000000" rx="3" ry="3" style="stroke:#000000;stroke-width:1;"/><text fill="#000000" font-family="sans-serif" font-size="14" lengthAdjust="spacing" textLength="195.084" x="508.97" y="294.2157">time_serie_data_date : date</text></g><!--class Ranking--><g class="entity" data-entity="Ranking" data-source-line="35" data-uid="ent0008" id="entity_Ranking"><rect fill="#F1F1F1" height="113.1875" rx="2.5" ry="2.5" style="stroke:#181818;stroke-width:0.5;" width="427.8643" x="907.66" y="7"/><ellipse cx="1088.8739" cy="23" fill="#ADD1B2" rx="11" ry="11" style="stroke:#181818;stroke-width:1;"/><path d="M1092.9832,29 L1085.2645,29 L1085.2645,16.6094 L1092.9832,16.6094 L1092.9832,18.7656 L1087.7176,18.7656 L1087.7176,21.4375 L1092.4832,21.4375 L1092.4832,23.5938 L1087.7176,23.5938 L1087.7176,26.8438 L1092.9832,26.8438 L1092.9832,29 Z " fill="#000000"/><text fill="#000000" font-family="sans-serif" font-size="14" lengthAdjust="spacing" textLength="56.9365" x="1109.3739" y="27.8467">Ranking</text><line style="stroke:#181818;stroke-width:0.5;" x1="908.66" x2="1334.5243" y1="39" y2="39"/><ellipse cx="918.66" cy="52.6484" fill="#000000" rx="3" ry="3" style="stroke:#000000;stroke-width:1;"/><text fill="#000000" font-family="sans-serif" font-size="14" lengthAdjust="spacing" textLength="234.8896" x="927.66" y="55.9951">ranking_id : number &#171;generated&#187;</text><line style="stroke:#181818;stroke-width:1;" x1="908.66" x2="1334.5243" y1="63.2969" y2="63.2969"/><ellipse cx="918.66" cy="76.9453" fill="#000000" rx="3" ry="3" style="stroke:#000000;stroke-width:1;"/><text fill="#000000" font-family="sans-serif" font-size="14" lengthAdjust="spacing" textLength="130.4023" x="927.66" y="80.292">ranking_slug : text</text><ellipse cx="918.66" cy="93.2422" fill="#000000" rx="3" ry="3" style="stroke:#000000;stroke-width:1;"/><text fill="#000000" font-family="sans-serif" font-size="14" lengthAdjust="spacing" textLength="401.8643" x="927.66" y="96.5889">ranking_category : enum('products','sales','transactions')</text><ellipse cx="918.66" cy="109.5391" fill="#000000" rx="3" ry="3" style="stroke:#000000;stroke-width:1;"/><text fill="#000000" font-family="sans-serif" font-size="14" lengthAdjust="spacing" textLength="174.0703" x="927.66" y="112.8857">ranking_value_title : text</text></g><!--class RankingCompetitor--><g class="entity" data-entity="RankingCompetitor" data-source-line="43" data-uid="ent0009" id="entity_RankingCompetitor"><rect fill="#F1F1F1" height="129.4844" rx="2.5" ry="2.5" style="stroke:#181818;stroke-width:0.5;" width="296.3203" x="973.43" y="180.19"/><ellipse cx="1049.5379" cy="196.19" fill="#ADD1B2" rx="11" ry="11" style="stroke:#181818;stroke-width:1;"/><path d="M1053.6473,202.19 L1045.9285,202.19 L1045.9285,189.7994 L1053.6473,189.7994 L1053.6473,191.9556 L1048.3817,191.9556 L1048.3817,194.6275 L1053.1473,194.6275 L1053.1473,196.7838 L1048.3817,196.7838 L1048.3817,200.0338 L1053.6473,200.0338 L1053.6473,202.19 Z " fill="#000000"/><text fill="#000000" font-family="sans-serif" font-size="14" lengthAdjust="spacing" textLength="135.6045" x="1070.0379" y="201.0367">RankingCompetitor</text><line style="stroke:#181818;stroke-width:0.5;" x1="974.43" x2="1268.7503" y1="212.19" y2="212.19"/><ellipse cx="984.43" cy="225.8384" fill="#000000" rx="3" ry="3" style="stroke:#000000;stroke-width:1;"/><text fill="#000000" font-family="sans-serif" font-size="14" lengthAdjust="spacing" textLength="200.4707" x="993.43" y="229.1851">ranking_competitor_id : uuid</text><ellipse cx="984.43" cy="242.1353" fill="#000000" rx="3" ry="3" style="stroke:#000000;stroke-width:1;"/><text fill="#000000" font-family="sans-serif" font-size="14" lengthAdjust="spacing" textLength="179.8125" x="993.43" y="245.482">ranking_id : number &#171;FK&#187;</text><line style="stroke:#181818;stroke-width:1;" x1="974.43" x2="1268.7503" y1="252.7838" y2="252.7838"/><ellipse cx="984.43" cy="266.4322" fill="#000000" rx="3" ry="3" style="stroke:#000000;stroke-width:1;"/><text fill="#000000" font-family="sans-serif" font-size="14" lengthAdjust="spacing" textLength="237.0635" x="993.43" y="269.7789">ranking_competitor_name : string</text><ellipse cx="984.43" cy="282.7291" fill="#000000" rx="3" ry="3" style="stroke:#000000;stroke-width:1;"/><text fill="#000000" font-family="sans-serif" font-size="14" lengthAdjust="spacing" textLength="250.0518" x="993.43" y="286.0757">ranking_competitor_value : number</text><ellipse cx="984.43" cy="299.0259" fill="#000000" rx="3" ry="3" style="stroke:#000000;stroke-width:1;"/><text fill="#000000" font-family="sans-serif" font-size="14" lengthAdjust="spacing" textLength="270.3203" x="993.43" y="302.3726">ranking_competitor_last_update : date</text></g><!--link AggregateFN to Aggregate--><g class="link" data-entity-1="AggregateFN" data-entity-2="Aggregate" data-source-line="14" data-uid="lnk4" id="link_AggregateFN_Aggregate"><path codeLine="14" d="M230.59,96.04 C230.59,119.3 230.59,139.99 230.59,171.94" fill="none" id="AggregateFN-Aggregate" style="stroke:#181818;stroke-width:1;"/><line style="stroke:#181818;stroke-width:1;" x1="226.59" x2="234.59" y1="92.04" y2="92.04"/><line style="stroke:#181818;stroke-width:1;" x1="226.59" x2="234.59" y1="95.04" y2="95.04"/><line style="stroke:#181818;stroke-width:1;" x1="230.59" x2="230.59" y1="96.04" y2="88.04"/><line style="stroke:#181818;stroke-width:1;" x1="230.59" x2="236.59" y1="171.94" y2="179.94"/><line style="stroke:#181818;stroke-width:1;" x1="230.59" x2="224.59" y1="171.94" y2="179.94"/><line style="stroke:#181818;stroke-width:1;" x1="230.59" x2="230.59" y1="171.94" y2="179.94"/><line style="stroke:#181818;stroke-width:1;" x1="234.59" x2="226.59" y1="169.94" y2="169.94"/></g><!--link TimeSerie to TimeSerieData--><g class="link" data-entity-1="TimeSerie" data-entity-2="TimeSerieData" data-source-line="32" data-uid="lnk7" id="link_TimeSerie_TimeSerieData"><path codeLine="32" d="M648.59,120.18 C648.59,143.53 648.59,145.8 648.59,170.16" fill="none" id="TimeSerie-TimeSerieData" style="stroke:#181818;stroke-width:1;"/><line style="stroke:#181818;stroke-width:1;" x1="644.59" x2="652.59" y1="116.18" y2="116.18"/><line style="stroke:#181818;stroke-width:1;" x1="644.59" x2="652.59" y1="119.18" y2="119.18"/><line style="stroke:#181818;stroke-width:1;" x1="648.59" x2="648.59" y1="120.18" y2="112.18"/><line style="stroke:#181818;stroke-width:1;" x1="648.59" x2="654.59" y1="180.16" y2="188.16"/><line style="stroke:#181818;stroke-width:1;" x1="648.59" x2="642.59" y1="180.16" y2="188.16"/><line style="stroke:#181818;stroke-width:1;" x1="648.59" x2="648.59" y1="180.16" y2="188.16"/><ellipse cx="648.59" cy="174.16" fill="none" rx="4" ry="4" style="stroke:#181818;stroke-width:1;"/></g><!--link Ranking to RankingCompetitor--><g class="link" data-entity-1="Ranking" data-entity-2="RankingCompetitor" data-source-line="52" data-uid="lnk10" id="link_Ranking_RankingCompetitor"><path codeLine="52" d="M1121.59,128.35 C1121.59,147.17 1121.59,142.32 1121.59,161.74" fill="none" id="Ranking-RankingCompetitor" style="stroke:#181818;stroke-width:1;"/><line style="stroke:#181818;stroke-width:1;" x1="1117.59" x2="1125.59" y1="124.35" y2="124.35"/><line style="stroke:#181818;stroke-width:1;" x1="1117.59" x2="1125.59" y1="127.35" y2="127.35"/><line style="stroke:#181818;stroke-width:1;" x1="1121.59" x2="1121.59" y1="128.35" y2="120.35"/><line style="stroke:#181818;stroke-width:1;" x1="1121.59" x2="1127.59" y1="171.74" y2="179.74"/><line style="stroke:#181818;stroke-width:1;" x1="1121.59" x2="1115.59" y1="171.74" y2="179.74"/><line style="stroke:#181818;stroke-width:1;" x1="1121.59" x2="1121.59" y1="171.74" y2="179.74"/><ellipse cx="1121.59" cy="165.74" fill="none" rx="4" ry="4" style="stroke:#181818;stroke-width:1;"/></g><!--SRC=[dLDDJuD04BtlhzWRQaJlJTEagJOnfctIZpFPmaWsmaBsmzYq_dTd2mjqGQEz03FpPlQzDsn04wRPdYbuT1zX3bhoM3sK9iy88G6Tfgc4b6aW83JNXpP1ZuJIEyfS7F64ZgY6J-tbOtoaXJnW5OJ9Ru9I5ec9jGhk0yKoi6yjcL0irhmGAhZ50M7eJNaJJV_wURRQBRVOjjaj5jFjosfvxkd2FrXc03kmOGyIYsqfOqf7faoiXf7r0CWN8Osk-PAUJc5uEdQqen5RdiC696-CQ1Ar4HhZIDb4vKHrCXsFKn0WSKeocRJ2EcYLcRJhNATqXNKenIVuXDljaxGx_oVJI_JyzGph3-rvtuTuvhTUMkkBuoLtQ_-QYNSkKgUj3cjLieh-eiP1VTDT_ggVjMq_Iu-GOWPkUhkGclIio4l0H24z-d5Jg9GOmvDVzDN-Uy8wGmJBBGk5LngT-m4qiAm1rF2TSLkebzRJzmq0]--></g></svg>