<svg xmlns="http://www.w3.org/2000/svg" xmlns:xlink="http://www.w3.org/1999/xlink" contentStyleType="text/css" data-diagram-type="CLASS" height="489px" preserveAspectRatio="none" style="width:1005px;height:489px;background:#FFFFFF;" version="1.1" viewBox="0 0 1005 489" width="1005px" zoomAndPan="magnify"><defs/><g><!--class MetricsCategory--><g class="entity" data-entity="MetricsCategory" data-source-line="4" data-uid="ent0002" id="entity_MetricsCategory"><rect fill="#F1F1F1" height="80.5938" rx="2.5" ry="2.5" style="stroke:#181818;stroke-width:0.5;" width="269.7969" x="342.61" y="7"/><ellipse cx="415.8742" cy="23" fill="#ADD1B2" rx="11" ry="11" style="stroke:#181818;stroke-width:1;"/><path d="M419.9835,29 L412.2648,29 L412.2648,16.6094 L419.9835,16.6094 L419.9835,18.7656 L414.7179,18.7656 L414.7179,21.4375 L419.4835,21.4375 L419.4835,23.5938 L414.7179,23.5938 L414.7179,26.8438 L419.9835,26.8438 L419.9835,29 Z " fill="#000000"/><text fill="#000000" font-family="sans-serif" font-size="14" lengthAdjust="spacing" textLength="114.7686" x="436.3742" y="27.8467">MetricsCategory</text><line style="stroke:#181818;stroke-width:0.5;" x1="343.61" x2="611.4069" y1="39" y2="39"/><ellipse cx="353.61" cy="52.6484" fill="#000000" rx="3" ry="3" style="stroke:#000000;stroke-width:1;"/><text fill="#000000" font-family="sans-serif" font-size="14" lengthAdjust="spacing" textLength="243.7969" x="362.61" y="55.9951">category_id : number &#171;generated&#187;</text><line style="stroke:#181818;stroke-width:1;" x1="343.61" x2="611.4069" y1="63.2969" y2="63.2969"/><ellipse cx="353.61" cy="76.9453" fill="#000000" rx="3" ry="3" style="stroke:#000000;stroke-width:1;"/><text fill="#000000" font-family="sans-serif" font-size="14" lengthAdjust="spacing" textLength="150.0693" x="362.61" y="80.292">category_name : text</text></g><!--class AggregateFN--><g class="entity" data-entity="AggregateFN" data-source-line="11" data-uid="ent0003" id="entity_AggregateFN"><rect fill="#F1F1F1" height="80.5938" rx="2.5" ry="2.5" style="stroke:#181818;stroke-width:0.5;" width="301.0166" x="7" y="7"/><ellipse cx="107.3516" cy="23" fill="#ADD1B2" rx="11" ry="11" style="stroke:#181818;stroke-width:1;"/><path d="M111.4609,29 L103.7422,29 L103.7422,16.6094 L111.4609,16.6094 L111.4609,18.7656 L106.1953,18.7656 L106.1953,21.4375 L110.9609,21.4375 L110.9609,23.5938 L106.1953,23.5938 L106.1953,26.8438 L111.4609,26.8438 L111.4609,29 Z " fill="#000000"/><text fill="#000000" font-family="sans-serif" font-size="14" lengthAdjust="spacing" textLength="91.8135" x="127.8516" y="27.8467">AggregateFN</text><line style="stroke:#181818;stroke-width:0.5;" x1="8" x2="307.0166" y1="39" y2="39"/><ellipse cx="18" cy="52.6484" fill="#000000" rx="3" ry="3" style="stroke:#000000;stroke-width:1;"/><text fill="#000000" font-family="sans-serif" font-size="14" lengthAdjust="spacing" textLength="275.0166" x="27" y="55.9951">aggregate_fn_id : number &#171;generated&#187;</text><line style="stroke:#181818;stroke-width:1;" x1="8" x2="307.0166" y1="63.2969" y2="63.2969"/><ellipse cx="18" cy="76.9453" fill="#000000" rx="3" ry="3" style="stroke:#000000;stroke-width:1;"/><text fill="#000000" font-family="sans-serif" font-size="14" lengthAdjust="spacing" textLength="181.2891" x="27" y="80.292">aggregate_fn_name : text</text></g><!--class Aggregate--><g class="entity" data-entity="Aggregate" data-source-line="17" data-uid="ent0004" id="entity_Aggregate"><rect fill="#F1F1F1" height="145.7813" rx="2.5" ry="2.5" style="stroke:#181818;stroke-width:0.5;" width="280.2148" x="19.4" y="147.59"/><ellipse cx="118.6134" cy="163.59" fill="#ADD1B2" rx="11" ry="11" style="stroke:#181818;stroke-width:1;"/><path d="M122.7228,169.59 L115.004,169.59 L115.004,157.1994 L122.7228,157.1994 L122.7228,159.3556 L117.4571,159.3556 L117.4571,162.0275 L122.2228,162.0275 L122.2228,164.1838 L117.4571,164.1838 L117.4571,167.4338 L122.7228,167.4338 L122.7228,169.59 Z " fill="#000000"/><text fill="#000000" font-family="sans-serif" font-size="14" lengthAdjust="spacing" textLength="73.2881" x="139.1134" y="168.4367">Aggregate</text><line style="stroke:#181818;stroke-width:0.5;" x1="20.4" x2="298.6148" y1="179.59" y2="179.59"/><ellipse cx="30.4" cy="193.2384" fill="#000000" rx="3" ry="3" style="stroke:#000000;stroke-width:1;"/><text fill="#000000" font-family="sans-serif" font-size="14" lengthAdjust="spacing" textLength="254.2148" x="39.4" y="196.5851">aggregate_id : number &#171;generated&#187;</text><line style="stroke:#181818;stroke-width:1;" x1="20.4" x2="298.6148" y1="203.8869" y2="203.8869"/><ellipse cx="30.4" cy="217.5353" fill="#000000" rx="3" ry="3" style="stroke:#000000;stroke-width:1;"/><text fill="#000000" font-family="sans-serif" font-size="14" lengthAdjust="spacing" textLength="160.4873" x="39.4" y="220.882">aggregate_name : text</text><ellipse cx="30.4" cy="233.8322" fill="#000000" rx="3" ry="3" style="stroke:#000000;stroke-width:1;"/><text fill="#000000" font-family="sans-serif" font-size="14" lengthAdjust="spacing" textLength="188.7197" x="39.4" y="237.1789">category_id : number &#171;FK&#187;</text><ellipse cx="30.4" cy="250.1291" fill="#000000" rx="3" ry="3" style="stroke:#000000;stroke-width:1;"/><text fill="#000000" font-family="sans-serif" font-size="14" lengthAdjust="spacing" textLength="219.9395" x="39.4" y="253.4757">aggregate_fn_id : number &#171;FK&#187;</text><ellipse cx="30.4" cy="266.4259" fill="#000000" rx="3" ry="3" style="stroke:#000000;stroke-width:1;"/><text fill="#000000" font-family="sans-serif" font-size="14" lengthAdjust="spacing" textLength="185.7871" x="39.4" y="269.7726">aggregate_value : number</text><text fill="#000000" font-family="sans-serif" font-size="14" lengthAdjust="spacing" textLength="206.0557" x="39.4" y="286.0695">aggregate_last_update : date</text></g><!--class TimeSerie--><g class="entity" data-entity="TimeSerie" data-source-line="31" data-uid="ent0007" id="entity_TimeSerie"><rect fill="#F1F1F1" height="96.8906" rx="2.5" ry="2.5" style="stroke:#181818;stroke-width:0.5;" width="280.7207" x="335.15" y="172.04"/><ellipse cx="436.0348" cy="188.04" fill="#ADD1B2" rx="11" ry="11" style="stroke:#181818;stroke-width:1;"/><path d="M440.1441,194.04 L432.4254,194.04 L432.4254,181.6494 L440.1441,181.6494 L440.1441,183.8056 L434.8785,183.8056 L434.8785,186.4775 L439.6441,186.4775 L439.6441,188.6338 L434.8785,188.6338 L434.8785,191.8838 L440.1441,191.8838 L440.1441,194.04 Z " fill="#000000"/><text fill="#000000" font-family="sans-serif" font-size="14" lengthAdjust="spacing" textLength="70.4512" x="456.5348" y="192.8867">TimeSerie</text><line style="stroke:#181818;stroke-width:0.5;" x1="336.15" x2="614.8707" y1="204.04" y2="204.04"/><ellipse cx="346.15" cy="217.6884" fill="#000000" rx="3" ry="3" style="stroke:#000000;stroke-width:1;"/><text fill="#000000" font-family="sans-serif" font-size="14" lengthAdjust="spacing" textLength="254.7207" x="355.15" y="221.0351">time_serie_id : number &#171;generated&#187;</text><line style="stroke:#181818;stroke-width:1;" x1="336.15" x2="614.8707" y1="228.3369" y2="228.3369"/><ellipse cx="346.15" cy="241.9853" fill="#000000" rx="3" ry="3" style="stroke:#000000;stroke-width:1;"/><text fill="#000000" font-family="sans-serif" font-size="14" lengthAdjust="spacing" textLength="160.9932" x="355.15" y="245.332">time_serie_name : text</text><ellipse cx="346.15" cy="258.2822" fill="#000000" rx="3" ry="3" style="stroke:#000000;stroke-width:1;"/><text fill="#000000" font-family="sans-serif" font-size="14" lengthAdjust="spacing" textLength="188.7197" x="355.15" y="261.6289">category_id : number &#171;FK&#187;</text></g><!--class TimeSerieData--><g class="entity" data-entity="TimeSerieData" data-source-line="38" data-uid="ent0008" id="entity_TimeSerieData"><rect fill="#F1F1F1" height="113.1875" rx="2.5" ry="2.5" style="stroke:#181818;stroke-width:0.5;" width="319.2549" x="299.88" y="361.52"/><ellipse cx="403.318" cy="377.52" fill="#ADD1B2" rx="11" ry="11" style="stroke:#181818;stroke-width:1;"/><path d="M407.4274,383.52 L399.7086,383.52 L399.7086,371.1294 L407.4274,371.1294 L407.4274,373.2856 L402.1617,373.2856 L402.1617,375.9575 L406.9274,375.9575 L406.9274,378.1138 L402.1617,378.1138 L402.1617,381.3638 L407.4274,381.3638 L407.4274,383.52 Z " fill="#000000"/><text fill="#000000" font-family="sans-serif" font-size="14" lengthAdjust="spacing" textLength="103.8789" x="423.818" y="382.3667">TimeSerieData</text><line style="stroke:#181818;stroke-width:0.5;" x1="300.88" x2="618.1349" y1="393.52" y2="393.52"/><ellipse cx="310.88" cy="407.1684" fill="#000000" rx="3" ry="3" style="stroke:#000000;stroke-width:1;"/><text fill="#000000" font-family="sans-serif" font-size="14" lengthAdjust="spacing" textLength="293.2549" x="319.88" y="410.5151">time_serie_data_id : number &#171;generated&#187;</text><line style="stroke:#181818;stroke-width:1;" x1="300.88" x2="618.1349" y1="417.8169" y2="417.8169"/><ellipse cx="310.88" cy="431.4653" fill="#000000" rx="3" ry="3" style="stroke:#000000;stroke-width:1;"/><text fill="#000000" font-family="sans-serif" font-size="14" lengthAdjust="spacing" textLength="199.6436" x="319.88" y="434.812">time_serie_id : number &#171;FK&#187;</text><ellipse cx="310.88" cy="447.7622" fill="#000000" rx="3" ry="3" style="stroke:#000000;stroke-width:1;"/><text fill="#000000" font-family="sans-serif" font-size="14" lengthAdjust="spacing" textLength="224.8271" x="319.88" y="451.1089">time_serie_data_value : number</text><ellipse cx="310.88" cy="464.0591" fill="#000000" rx="3" ry="3" style="stroke:#000000;stroke-width:1;"/><text fill="#000000" font-family="sans-serif" font-size="14" lengthAdjust="spacing" textLength="195.084" x="319.88" y="467.4057">time_serie_data_date : date</text></g><!--class Ranking--><g class="entity" data-entity="Ranking" data-source-line="50" data-uid="ent0011" id="entity_Ranking"><rect fill="#F1F1F1" height="113.1875" rx="2.5" ry="2.5" style="stroke:#181818;stroke-width:0.5;" width="260.8896" x="681.06" y="163.89"/><ellipse cx="778.7866" cy="179.89" fill="#ADD1B2" rx="11" ry="11" style="stroke:#181818;stroke-width:1;"/><path d="M782.8959,185.89 L775.1772,185.89 L775.1772,173.4994 L782.8959,173.4994 L782.8959,175.6556 L777.6303,175.6556 L777.6303,178.3275 L782.3959,178.3275 L782.3959,180.4838 L777.6303,180.4838 L777.6303,183.7338 L782.8959,183.7338 L782.8959,185.89 Z " fill="#000000"/><text fill="#000000" font-family="sans-serif" font-size="14" lengthAdjust="spacing" textLength="56.9365" x="799.2866" y="184.7367">Ranking</text><line style="stroke:#181818;stroke-width:0.5;" x1="682.06" x2="940.9496" y1="195.89" y2="195.89"/><ellipse cx="692.06" cy="209.5384" fill="#000000" rx="3" ry="3" style="stroke:#000000;stroke-width:1;"/><text fill="#000000" font-family="sans-serif" font-size="14" lengthAdjust="spacing" textLength="234.8896" x="701.06" y="212.8851">ranking_id : number &#171;generated&#187;</text><line style="stroke:#181818;stroke-width:1;" x1="682.06" x2="940.9496" y1="220.1869" y2="220.1869"/><ellipse cx="692.06" cy="233.8353" fill="#000000" rx="3" ry="3" style="stroke:#000000;stroke-width:1;"/><text fill="#000000" font-family="sans-serif" font-size="14" lengthAdjust="spacing" textLength="141.1621" x="701.06" y="237.182">ranking_name : text</text><ellipse cx="692.06" cy="250.1322" fill="#000000" rx="3" ry="3" style="stroke:#000000;stroke-width:1;"/><text fill="#000000" font-family="sans-serif" font-size="14" lengthAdjust="spacing" textLength="188.7197" x="701.06" y="253.4789">category_id : number &#171;FK&#187;</text><ellipse cx="692.06" cy="266.4291" fill="#000000" rx="3" ry="3" style="stroke:#000000;stroke-width:1;"/><text fill="#000000" font-family="sans-serif" font-size="14" lengthAdjust="spacing" textLength="174.0703" x="701.06" y="269.7757">ranking_value_title : text</text></g><!--class RankingCompetitor--><g class="entity" data-entity="RankingCompetitor" data-source-line="58" data-uid="ent0012" id="entity_RankingCompetitor"><rect fill="#F1F1F1" height="129.4844" rx="2.5" ry="2.5" style="stroke:#181818;stroke-width:0.5;" width="344.4795" x="654.27" y="353.38"/><ellipse cx="754.4575" cy="369.38" fill="#ADD1B2" rx="11" ry="11" style="stroke:#181818;stroke-width:1;"/><path d="M758.5669,375.38 L750.8481,375.38 L750.8481,362.9894 L758.5669,362.9894 L758.5669,365.1456 L753.3013,365.1456 L753.3013,367.8175 L758.0669,367.8175 L758.0669,369.9738 L753.3013,369.9738 L753.3013,373.2238 L758.5669,373.2238 L758.5669,375.38 Z " fill="#000000"/><text fill="#000000" font-family="sans-serif" font-size="14" lengthAdjust="spacing" textLength="135.6045" x="774.9575" y="374.2267">RankingCompetitor</text><line style="stroke:#181818;stroke-width:0.5;" x1="655.27" x2="997.7495" y1="385.38" y2="385.38"/><ellipse cx="665.27" cy="399.0284" fill="#000000" rx="3" ry="3" style="stroke:#000000;stroke-width:1;"/><text fill="#000000" font-family="sans-serif" font-size="14" lengthAdjust="spacing" textLength="318.4795" x="674.27" y="402.3751">ranking_competitor_id : number &#171;generated&#187;</text><line style="stroke:#181818;stroke-width:1;" x1="655.27" x2="997.7495" y1="409.6769" y2="409.6769"/><ellipse cx="665.27" cy="423.3253" fill="#000000" rx="3" ry="3" style="stroke:#000000;stroke-width:1;"/><text fill="#000000" font-family="sans-serif" font-size="14" lengthAdjust="spacing" textLength="179.8125" x="674.27" y="426.672">ranking_id : number &#171;FK&#187;</text><ellipse cx="665.27" cy="439.6222" fill="#000000" rx="3" ry="3" style="stroke:#000000;stroke-width:1;"/><text fill="#000000" font-family="sans-serif" font-size="14" lengthAdjust="spacing" textLength="237.0635" x="674.27" y="442.9689">ranking_competitor_name : string</text><ellipse cx="665.27" cy="455.9191" fill="#000000" rx="3" ry="3" style="stroke:#000000;stroke-width:1;"/><text fill="#000000" font-family="sans-serif" font-size="14" lengthAdjust="spacing" textLength="250.0518" x="674.27" y="459.2657">ranking_competitor_value : number</text><ellipse cx="665.27" cy="472.2159" fill="#000000" rx="3" ry="3" style="stroke:#000000;stroke-width:1;"/><text fill="#000000" font-family="sans-serif" font-size="14" lengthAdjust="spacing" textLength="270.3203" x="674.27" y="475.5626">ranking_competitor_last_update : date</text></g><!--link MetricsCategory to Aggregate--><g class="link" data-entity-1="MetricsCategory" data-entity-2="Aggregate" data-source-line="27" data-uid="lnk5" id="link_MetricsCategory_Aggregate"><path codeLine="27" d="M396.7058,91.792 C363.9558,109.422 338.4441,123.1579 300.7541,143.4479" fill="none" id="MetricsCategory-Aggregate" style="stroke:#181818;stroke-width:1;"/><line style="stroke:#181818;stroke-width:1;" x1="398.3319" x2="402.1239" y1="86.3739" y2="93.4181"/><line style="stroke:#181818;stroke-width:1;" x1="395.6903" x2="399.4824" y1="87.7959" y2="94.8401"/><line style="stroke:#181818;stroke-width:1;" x1="396.7058" x2="403.75" y1="91.792" y2="88"/><line style="stroke:#181818;stroke-width:1;" x1="300.7541" x2="296.5541" y1="143.4479" y2="152.5231"/><line style="stroke:#181818;stroke-width:1;" x1="300.7541" x2="290.8659" y1="143.4479" y2="141.9569"/><line style="stroke:#181818;stroke-width:1;" x1="300.7541" x2="293.71" y1="143.4479" y2="147.24"/><line style="stroke:#181818;stroke-width:1;" x1="304.4112" x2="300.6191" y1="146.0219" y2="138.9778"/></g><!--link AggregateFN to Aggregate--><g class="link" data-entity-1="AggregateFN" data-entity-2="Aggregate" data-source-line="28" data-uid="lnk6" id="link_AggregateFN_Aggregate"><path codeLine="28" d="M158.065,95.9994 C158.275,113.6794 158.3356,119.0706 158.5756,139.4106" fill="none" id="AggregateFN-Aggregate" style="stroke:#181818;stroke-width:1;"/><line style="stroke:#181818;stroke-width:1;" x1="154.0178" x2="162.0172" y1="92.0472" y2="91.9522"/><line style="stroke:#181818;stroke-width:1;" x1="154.0534" x2="162.0529" y1="95.047" y2="94.952"/><line style="stroke:#181818;stroke-width:1;" x1="158.065" x2="157.97" y1="95.9994" y2="88"/><line style="stroke:#181818;stroke-width:1;" x1="158.5756" x2="164.6696" y1="139.4106" y2="147.3392"/><line style="stroke:#181818;stroke-width:1;" x1="158.5756" x2="152.6704" y1="139.4106" y2="147.4808"/><line style="stroke:#181818;stroke-width:1;" x1="158.5756" x2="158.67" y1="139.4106" y2="147.41"/><line style="stroke:#181818;stroke-width:1;" x1="162.5517" x2="154.5523" y1="137.3635" y2="137.4579"/></g><!--link MetricsCategory to TimeSerie--><g class="link" data-entity-1="MetricsCategory" data-entity-2="TimeSerie" data-source-line="46" data-uid="lnk9" id="link_MetricsCategory_TimeSerie"><path codeLine="46" d="M476.9472,95.9995 C476.6572,120.9895 476.461,137.3905 476.161,163.7705" fill="none" id="MetricsCategory-TimeSerie" style="stroke:#181818;stroke-width:1;"/><line style="stroke:#181818;stroke-width:1;" x1="472.9939" x2="480.9933" y1="91.9533" y2="92.0461"/><line style="stroke:#181818;stroke-width:1;" x1="472.959" x2="480.9585" y1="94.9531" y2="95.0459"/><line style="stroke:#181818;stroke-width:1;" x1="476.9472" x2="477.04" y1="95.9995" y2="88"/><line style="stroke:#181818;stroke-width:1;" x1="476.161" x2="482.0696" y1="163.7705" y2="171.8382"/><line style="stroke:#181818;stroke-width:1;" x1="476.161" x2="470.0704" y1="163.7705" y2="171.7018"/><line style="stroke:#181818;stroke-width:1;" x1="476.161" x2="476.07" y1="163.7705" y2="171.77"/><line style="stroke:#181818;stroke-width:1;" x1="480.1835" x2="472.184" y1="161.8161" y2="161.7252"/></g><!--link TimeSerie to TimeSerieData--><g class="link" data-entity-1="TimeSerie" data-entity-2="TimeSerieData" data-source-line="47" data-uid="lnk10" id="link_TimeSerie_TimeSerieData"><path codeLine="47" d="M470.9399,277.3135 C468.6799,305.0335 467.9261,314.1398 465.5561,343.1398" fill="none" id="TimeSerie-TimeSerieData" style="stroke:#181818;stroke-width:1;"/><line style="stroke:#181818;stroke-width:1;" x1="467.2782" x2="475.2517" y1="273.0017" y2="273.6518"/><line style="stroke:#181818;stroke-width:1;" x1="467.0344" x2="475.008" y1="275.9918" y2="276.6419"/><line style="stroke:#181818;stroke-width:1;" x1="470.9399" x2="471.59" y1="277.3135" y2="269.34"/><line style="stroke:#181818;stroke-width:1;" x1="464.7416" x2="470.0701" y1="353.1066" y2="361.5687"/><line style="stroke:#181818;stroke-width:1;" x1="464.7416" x2="458.1099" y1="353.1066" y2="360.5913"/><line style="stroke:#181818;stroke-width:1;" x1="464.7416" x2="464.09" y1="353.1066" y2="361.08"/><ellipse cx="465.2303" cy="347.1265" fill="none" rx="4" ry="4" style="stroke:#181818;stroke-width:1;"/></g><!--link MetricsCategory to Ranking--><g class="link" data-entity-1="MetricsCategory" data-entity-2="Ranking" data-source-line="67" data-uid="lnk13" id="link_MetricsCategory_Ranking"><path codeLine="67" d="M562.0896,91.6485 C605.8396,114.0685 646.9805,135.1614 695.0805,159.8114" fill="none" id="MetricsCategory-Ranking" style="stroke:#181818;stroke-width:1;"/><line style="stroke:#181818;stroke-width:1;" x1="556.7056" x2="560.354" y1="93.384" y2="86.2644"/><line style="stroke:#181818;stroke-width:1;" x1="559.3754" x2="563.0239" y1="94.7522" y2="87.6326"/><line style="stroke:#181818;stroke-width:1;" x1="562.0896" x2="554.97" y1="91.6485" y2="88"/><line style="stroke:#181818;stroke-width:1;" x1="695.0805" x2="704.9364" y1="159.8114" y2="158.1203"/><line style="stroke:#181818;stroke-width:1;" x1="695.0805" x2="699.4636" y1="159.8114" y2="168.7997"/><line style="stroke:#181818;stroke-width:1;" x1="695.0805" x2="702.2" y1="159.8114" y2="163.46"/><line style="stroke:#181818;stroke-width:1;" x1="695.1249" x2="691.4763" y1="155.3395" y2="162.459"/></g><!--link Ranking to RankingCompetitor--><g class="link" data-entity-1="Ranking" data-entity-2="RankingCompetitor" data-source-line="68" data-uid="lnk14" id="link_Ranking_RankingCompetitor"><path codeLine="68" d="M816.422,285.5266 C818.232,309.1166 818.354,310.7827 820.224,335.1727" fill="none" id="Ranking-RankingCompetitor" style="stroke:#181818;stroke-width:1;"/><line style="stroke:#181818;stroke-width:1;" x1="812.1277" x2="820.1043" y1="281.8443" y2="281.2323"/><line style="stroke:#181818;stroke-width:1;" x1="812.3572" x2="820.3338" y1="284.8355" y2="284.2235"/><line style="stroke:#181818;stroke-width:1;" x1="816.422" x2="815.81" y1="285.5266" y2="277.55"/><line style="stroke:#181818;stroke-width:1;" x1="820.9884" x2="827.5824" y1="345.1434" y2="352.6613"/><line style="stroke:#181818;stroke-width:1;" x1="820.9884" x2="815.6176" y1="345.1434" y2="353.5787"/><line style="stroke:#181818;stroke-width:1;" x1="820.9884" x2="821.6" y1="345.1434" y2="353.12"/><ellipse cx="820.5298" cy="339.161" fill="none" rx="4" ry="4" style="stroke:#181818;stroke-width:1;"/></g><!--SRC=[bLFBRiCW4BpxAxX5gkJs7aMHgbJf8MeFRUyMZhS85R25STN8xhyN4i0FdDJSlBi3ipE3LwZ02kUuXWVtaN9GaXxh-whXB4bMw9cLEMO924NL2RrSfZkiW9JoXDe4eJjqj6L62xH6ek4vIBJP410WzQZORZKiJSTOWJbej88VbVmQfaT2910zTcI-iN-rHDXria-nX6o4dn1EIGAAgFk7bz-mP7yu7x-fP0RpZLa37gE7_OZXMcLDLHW5QvCd677JdBekJRjsOF7Gss2em_YW7Dv1KX-6RrYVbAwpsZIM63L0npZLn-Jfd_H33LSmppToZokcJoyDh0yXoxpl7UsjDAEo7OipxhzXyKK5SU9jQMNBIxL4heF6lavtxYm-qpkmcJ_7RhKhUGMwKSh9VaS_Y5drduq6brfHjNPRMtK5D1FV32hg9tBXk5HiY84TVm00]--></g></svg>