<svg xmlns="http://www.w3.org/2000/svg" xmlns:xlink="http://www.w3.org/1999/xlink" contentStyleType="text/css" data-diagram-type="CLASS" height="316px" preserveAspectRatio="none" style="width:1342px;height:316px;background:#FFFFFF;" version="1.1" viewBox="0 0 1342 316" width="1342px" zoomAndPan="magnify"><defs/><g><!--class AggregateFN--><g class="entity" data-entity="AggregateFN" data-source-line="5" data-uid="ent0002" id="entity_AggregateFN"><rect fill="#F1F1F1" height="80.5938" rx="2.5" ry="2.5" style="stroke:#181818;stroke-width:0.5;" width="301.0166" x="80.09" y="15.15"/><ellipse cx="180.4416" cy="31.15" fill="#ADD1B2" rx="11" ry="11" style="stroke:#181818;stroke-width:1;"/><path d="M184.5509,37.15 L176.8322,37.15 L176.8322,24.7594 L184.5509,24.7594 L184.5509,26.9156 L179.2853,26.9156 L179.2853,29.5875 L184.0509,29.5875 L184.0509,31.7438 L179.2853,31.7438 L179.2853,34.9938 L184.5509,34.9938 L184.5509,37.15 Z " fill="#000000"/><text fill="#000000" font-family="sans-serif" font-size="14" lengthAdjust="spacing" textLength="91.8135" x="200.9416" y="35.9967">AggregateFN</text><line style="stroke:#181818;stroke-width:0.5;" x1="81.09" x2="380.1066" y1="47.15" y2="47.15"/><ellipse cx="91.09" cy="60.7984" fill="#000000" rx="3" ry="3" style="stroke:#000000;stroke-width:1;"/><text fill="#000000" font-family="sans-serif" font-size="14" lengthAdjust="spacing" textLength="275.0166" x="100.09" y="64.1451">aggregate_fn_id : number &#171;generated&#187;</text><line style="stroke:#181818;stroke-width:1;" x1="81.09" x2="380.1066" y1="71.4469" y2="71.4469"/><ellipse cx="91.09" cy="85.0953" fill="#000000" rx="3" ry="3" style="stroke:#000000;stroke-width:1;"/><text fill="#000000" font-family="sans-serif" font-size="14" lengthAdjust="spacing" textLength="181.2891" x="100.09" y="88.442">aggregate_fn_name : text</text></g><!--class Aggregate--><g class="entity" data-entity="Aggregate" data-source-line="11" data-uid="ent0003" id="entity_Aggregate"><rect fill="#F1F1F1" height="129.4844" rx="2.5" ry="2.5" style="stroke:#181818;stroke-width:0.5;" width="447.1895" x="7" y="172.04"/><ellipse cx="189.7007" cy="188.04" fill="#ADD1B2" rx="11" ry="11" style="stroke:#181818;stroke-width:1;"/><path d="M193.8101,194.04 L186.0913,194.04 L186.0913,181.6494 L193.8101,181.6494 L193.8101,183.8056 L188.5444,183.8056 L188.5444,186.4775 L193.3101,186.4775 L193.3101,188.6338 L188.5444,188.6338 L188.5444,191.8838 L193.8101,191.8838 L193.8101,194.04 Z " fill="#000000"/><text fill="#000000" font-family="sans-serif" font-size="14" lengthAdjust="spacing" textLength="73.2881" x="210.2007" y="192.8867">Aggregate</text><line style="stroke:#181818;stroke-width:0.5;" x1="8" x2="453.1895" y1="204.04" y2="204.04"/><ellipse cx="18" cy="217.6884" fill="#000000" rx="3" ry="3" style="stroke:#000000;stroke-width:1;"/><text fill="#000000" font-family="sans-serif" font-size="14" lengthAdjust="spacing" textLength="133.5605" x="27" y="221.0351">aggregate_id : text</text><ellipse cx="18" cy="233.9853" fill="#000000" rx="3" ry="3" style="stroke:#000000;stroke-width:1;"/><text fill="#000000" font-family="sans-serif" font-size="14" lengthAdjust="spacing" textLength="421.1895" x="27" y="237.332">aggregate_category : enum('products','sales','transactions')</text><line style="stroke:#181818;stroke-width:1;" x1="8" x2="453.1895" y1="244.6338" y2="244.6338"/><ellipse cx="18" cy="258.2822" fill="#000000" rx="3" ry="3" style="stroke:#000000;stroke-width:1;"/><text fill="#000000" font-family="sans-serif" font-size="14" lengthAdjust="spacing" textLength="219.9395" x="27" y="261.6289">aggregate_fn_id : number &#171;FK&#187;</text><ellipse cx="18" cy="274.5791" fill="#000000" rx="3" ry="3" style="stroke:#000000;stroke-width:1;"/><text fill="#000000" font-family="sans-serif" font-size="14" lengthAdjust="spacing" textLength="185.7871" x="27" y="277.9257">aggregate_value : number</text><text fill="#000000" font-family="sans-serif" font-size="14" lengthAdjust="spacing" textLength="206.0557" x="27" y="294.2226">aggregate_last_update : date</text></g><!--class TimeSerie--><g class="entity" data-entity="TimeSerie" data-source-line="23" data-uid="ent0005" id="entity_TimeSerie"><rect fill="#F1F1F1" height="80.5938" rx="2.5" ry="2.5" style="stroke:#181818;stroke-width:0.5;" width="447.6953" x="424.75" y="15.15"/><ellipse cx="609.1221" cy="31.15" fill="#ADD1B2" rx="11" ry="11" style="stroke:#181818;stroke-width:1;"/><path d="M613.2314,37.15 L605.5127,37.15 L605.5127,24.7594 L613.2314,24.7594 L613.2314,26.9156 L607.9658,26.9156 L607.9658,29.5875 L612.7314,29.5875 L612.7314,31.7438 L607.9658,31.7438 L607.9658,34.9938 L613.2314,34.9938 L613.2314,37.15 Z " fill="#000000"/><text fill="#000000" font-family="sans-serif" font-size="14" lengthAdjust="spacing" textLength="70.4512" x="629.6221" y="35.9967">TimeSerie</text><line style="stroke:#181818;stroke-width:0.5;" x1="425.75" x2="871.4453" y1="47.15" y2="47.15"/><ellipse cx="435.75" cy="60.7984" fill="#000000" rx="3" ry="3" style="stroke:#000000;stroke-width:1;"/><text fill="#000000" font-family="sans-serif" font-size="14" lengthAdjust="spacing" textLength="134.0664" x="444.75" y="64.1451">time_serie_id : text</text><ellipse cx="435.75" cy="77.0953" fill="#000000" rx="3" ry="3" style="stroke:#000000;stroke-width:1;"/><text fill="#000000" font-family="sans-serif" font-size="14" lengthAdjust="spacing" textLength="421.6953" x="444.75" y="80.442">time_serie_category : enum('products','sales','transactions')</text><line style="stroke:#181818;stroke-width:1;" x1="425.75" x2="871.4453" y1="87.7438" y2="87.7438"/></g><!--class TimeSerieData--><g class="entity" data-entity="TimeSerieData" data-source-line="29" data-uid="ent0006" id="entity_TimeSerieData"><rect fill="#F1F1F1" height="129.4844" rx="2.5" ry="2.5" style="stroke:#181818;stroke-width:0.5;" width="319.2549" x="488.97" y="172.04"/><ellipse cx="592.408" cy="188.04" fill="#ADD1B2" rx="11" ry="11" style="stroke:#181818;stroke-width:1;"/><path d="M596.5174,194.04 L588.7986,194.04 L588.7986,181.6494 L596.5174,181.6494 L596.5174,183.8056 L591.2517,183.8056 L591.2517,186.4775 L596.0174,186.4775 L596.0174,188.6338 L591.2517,188.6338 L591.2517,191.8838 L596.5174,191.8838 L596.5174,194.04 Z " fill="#000000"/><text fill="#000000" font-family="sans-serif" font-size="14" lengthAdjust="spacing" textLength="103.8789" x="612.908" y="192.8867">TimeSerieData</text><line style="stroke:#181818;stroke-width:0.5;" x1="489.97" x2="807.2249" y1="204.04" y2="204.04"/><ellipse cx="499.97" cy="217.6884" fill="#000000" rx="3" ry="3" style="stroke:#000000;stroke-width:1;"/><text fill="#000000" font-family="sans-serif" font-size="14" lengthAdjust="spacing" textLength="293.2549" x="508.97" y="221.0351">time_serie_data_id : number &#171;generated&#187;</text><line style="stroke:#181818;stroke-width:1;" x1="489.97" x2="807.2249" y1="228.3369" y2="228.3369"/><ellipse cx="499.97" cy="241.9853" fill="#000000" rx="3" ry="3" style="stroke:#000000;stroke-width:1;"/><text fill="#000000" font-family="sans-serif" font-size="14" lengthAdjust="spacing" textLength="172.8809" x="508.97" y="245.332">time_serie_id : text &#171;FK&#187;</text><ellipse cx="499.97" cy="258.2822" fill="#000000" rx="3" ry="3" style="stroke:#000000;stroke-width:1;"/><text fill="#000000" font-family="sans-serif" font-size="14" lengthAdjust="spacing" textLength="221.9766" x="508.97" y="261.6289">time_serie_category : text &#171;FK&#187;</text><ellipse cx="499.97" cy="274.5791" fill="#000000" rx="3" ry="3" style="stroke:#000000;stroke-width:1;"/><text fill="#000000" font-family="sans-serif" font-size="14" lengthAdjust="spacing" textLength="224.8271" x="508.97" y="277.9257">time_serie_data_value : number</text><ellipse cx="499.97" cy="290.8759" fill="#000000" rx="3" ry="3" style="stroke:#000000;stroke-width:1;"/><text fill="#000000" font-family="sans-serif" font-size="14" lengthAdjust="spacing" textLength="195.084" x="508.97" y="294.2226">time_serie_data_date : date</text></g><!--class Ranking--><g class="entity" data-entity="Ranking" data-source-line="41" data-uid="ent0008" id="entity_Ranking"><rect fill="#F1F1F1" height="96.8906" rx="2.5" ry="2.5" style="stroke:#181818;stroke-width:0.5;" width="427.8643" x="907.66" y="7"/><ellipse cx="1088.8739" cy="23" fill="#ADD1B2" rx="11" ry="11" style="stroke:#181818;stroke-width:1;"/><path d="M1092.9832,29 L1085.2645,29 L1085.2645,16.6094 L1092.9832,16.6094 L1092.9832,18.7656 L1087.7176,18.7656 L1087.7176,21.4375 L1092.4832,21.4375 L1092.4832,23.5938 L1087.7176,23.5938 L1087.7176,26.8438 L1092.9832,26.8438 L1092.9832,29 Z " fill="#000000"/><text fill="#000000" font-family="sans-serif" font-size="14" lengthAdjust="spacing" textLength="56.9365" x="1109.3739" y="27.8467">Ranking</text><line style="stroke:#181818;stroke-width:0.5;" x1="908.66" x2="1334.5243" y1="39" y2="39"/><ellipse cx="918.66" cy="52.6484" fill="#000000" rx="3" ry="3" style="stroke:#000000;stroke-width:1;"/><text fill="#000000" font-family="sans-serif" font-size="14" lengthAdjust="spacing" textLength="114.2354" x="927.66" y="55.9951">ranking_id : text</text><ellipse cx="918.66" cy="68.9453" fill="#000000" rx="3" ry="3" style="stroke:#000000;stroke-width:1;"/><text fill="#000000" font-family="sans-serif" font-size="14" lengthAdjust="spacing" textLength="401.8643" x="927.66" y="72.292">ranking_category : enum('products','sales','transactions')</text><line style="stroke:#181818;stroke-width:1;" x1="908.66" x2="1334.5243" y1="79.5938" y2="79.5938"/><ellipse cx="918.66" cy="93.2422" fill="#000000" rx="3" ry="3" style="stroke:#000000;stroke-width:1;"/><text fill="#000000" font-family="sans-serif" font-size="14" lengthAdjust="spacing" textLength="174.0703" x="927.66" y="96.5889">ranking_value_title : text</text></g><!--class RankingCompetitor--><g class="entity" data-entity="RankingCompetitor" data-source-line="48" data-uid="ent0009" id="entity_RankingCompetitor"><rect fill="#F1F1F1" height="145.7813" rx="2.5" ry="2.5" style="stroke:#181818;stroke-width:0.5;" width="344.4795" x="949.36" y="163.89"/><ellipse cx="1049.5475" cy="179.89" fill="#ADD1B2" rx="11" ry="11" style="stroke:#181818;stroke-width:1;"/><path d="M1053.6569,185.89 L1045.9381,185.89 L1045.9381,173.4994 L1053.6569,173.4994 L1053.6569,175.6556 L1048.3913,175.6556 L1048.3913,178.3275 L1053.1569,178.3275 L1053.1569,180.4838 L1048.3913,180.4838 L1048.3913,183.7338 L1053.6569,183.7338 L1053.6569,185.89 Z " fill="#000000"/><text fill="#000000" font-family="sans-serif" font-size="14" lengthAdjust="spacing" textLength="135.6045" x="1070.0475" y="184.7367">RankingCompetitor</text><line style="stroke:#181818;stroke-width:0.5;" x1="950.36" x2="1292.8395" y1="195.89" y2="195.89"/><ellipse cx="960.36" cy="209.5384" fill="#000000" rx="3" ry="3" style="stroke:#000000;stroke-width:1;"/><text fill="#000000" font-family="sans-serif" font-size="14" lengthAdjust="spacing" textLength="318.4795" x="969.36" y="212.8851">ranking_competitor_id : number &#171;generated&#187;</text><line style="stroke:#181818;stroke-width:1;" x1="950.36" x2="1292.8395" y1="220.1869" y2="220.1869"/><ellipse cx="960.36" cy="233.8353" fill="#000000" rx="3" ry="3" style="stroke:#000000;stroke-width:1;"/><text fill="#000000" font-family="sans-serif" font-size="14" lengthAdjust="spacing" textLength="153.0498" x="969.36" y="237.182">ranking_id : text &#171;FK&#187;</text><ellipse cx="960.36" cy="250.1322" fill="#000000" rx="3" ry="3" style="stroke:#000000;stroke-width:1;"/><text fill="#000000" font-family="sans-serif" font-size="14" lengthAdjust="spacing" textLength="202.1455" x="969.36" y="253.4789">ranking_category : text &#171;FK&#187;</text><ellipse cx="960.36" cy="266.4291" fill="#000000" rx="3" ry="3" style="stroke:#000000;stroke-width:1;"/><text fill="#000000" font-family="sans-serif" font-size="14" lengthAdjust="spacing" textLength="237.0635" x="969.36" y="269.7757">ranking_competitor_name : string</text><ellipse cx="960.36" cy="282.7259" fill="#000000" rx="3" ry="3" style="stroke:#000000;stroke-width:1;"/><text fill="#000000" font-family="sans-serif" font-size="14" lengthAdjust="spacing" textLength="250.0518" x="969.36" y="286.0726">ranking_competitor_value : number</text><ellipse cx="960.36" cy="299.0228" fill="#000000" rx="3" ry="3" style="stroke:#000000;stroke-width:1;"/><text fill="#000000" font-family="sans-serif" font-size="14" lengthAdjust="spacing" textLength="270.3203" x="969.36" y="302.3695">ranking_competitor_last_update : date</text></g><!--link AggregateFN to Aggregate--><g class="link" data-entity-1="AggregateFN" data-entity-2="Aggregate" data-source-line="20" data-uid="lnk4" id="link_AggregateFN_Aggregate"><path codeLine="20" d="M230.59,103.8 C230.59,126.07 230.59,138.46 230.59,163.85" fill="none" id="AggregateFN-Aggregate" style="stroke:#181818;stroke-width:1;"/><line style="stroke:#181818;stroke-width:1;" x1="226.59" x2="234.59" y1="99.8" y2="99.8"/><line style="stroke:#181818;stroke-width:1;" x1="226.59" x2="234.59" y1="102.8" y2="102.8"/><line style="stroke:#181818;stroke-width:1;" x1="230.59" x2="230.59" y1="103.8" y2="95.8"/><line style="stroke:#181818;stroke-width:1;" x1="230.59" x2="236.59" y1="163.85" y2="171.85"/><line style="stroke:#181818;stroke-width:1;" x1="230.59" x2="224.59" y1="163.85" y2="171.85"/><line style="stroke:#181818;stroke-width:1;" x1="230.59" x2="230.59" y1="163.85" y2="171.85"/><line style="stroke:#181818;stroke-width:1;" x1="234.59" x2="226.59" y1="161.85" y2="161.85"/></g><!--link TimeSerie to TimeSerieData--><g class="link" data-entity-1="TimeSerie" data-entity-2="TimeSerieData" data-source-line="38" data-uid="lnk7" id="link_TimeSerie_TimeSerieData"><path codeLine="38" d="M648.59,103.8 C648.59,126.07 648.59,128.46 648.59,153.85" fill="none" id="TimeSerie-TimeSerieData" style="stroke:#181818;stroke-width:1;"/><line style="stroke:#181818;stroke-width:1;" x1="644.59" x2="652.59" y1="99.8" y2="99.8"/><line style="stroke:#181818;stroke-width:1;" x1="644.59" x2="652.59" y1="102.8" y2="102.8"/><line style="stroke:#181818;stroke-width:1;" x1="648.59" x2="648.59" y1="103.8" y2="95.8"/><line style="stroke:#181818;stroke-width:1;" x1="648.59" x2="654.59" y1="163.85" y2="171.85"/><line style="stroke:#181818;stroke-width:1;" x1="648.59" x2="642.59" y1="163.85" y2="171.85"/><line style="stroke:#181818;stroke-width:1;" x1="648.59" x2="648.59" y1="163.85" y2="171.85"/><ellipse cx="648.59" cy="157.85" fill="none" rx="4" ry="4" style="stroke:#181818;stroke-width:1;"/></g><!--link Ranking to RankingCompetitor--><g class="link" data-entity-1="Ranking" data-entity-2="RankingCompetitor" data-source-line="58" data-uid="lnk10" id="link_Ranking_RankingCompetitor"><path codeLine="58" d="M1121.59,112.03 C1121.59,130.29 1121.59,125.57 1121.59,145.63" fill="none" id="Ranking-RankingCompetitor" style="stroke:#181818;stroke-width:1;"/><line style="stroke:#181818;stroke-width:1;" x1="1117.59" x2="1125.59" y1="108.03" y2="108.03"/><line style="stroke:#181818;stroke-width:1;" x1="1117.59" x2="1125.59" y1="111.03" y2="111.03"/><line style="stroke:#181818;stroke-width:1;" x1="1121.59" x2="1121.59" y1="112.03" y2="104.03"/><line style="stroke:#181818;stroke-width:1;" x1="1121.59" x2="1127.59" y1="155.63" y2="163.63"/><line style="stroke:#181818;stroke-width:1;" x1="1121.59" x2="1115.59" y1="155.63" y2="163.63"/><line style="stroke:#181818;stroke-width:1;" x1="1121.59" x2="1121.59" y1="155.63" y2="163.63"/><ellipse cx="1121.59" cy="149.63" fill="none" rx="4" ry="4" style="stroke:#181818;stroke-width:1;"/></g><!--SRC=[fPJ1JeGm48RlVOhUK2DwtsmsCPgzc7XGxwGBOzC8XRJ5k07VtIaMABHhDde1ElF3pFzDIq8BPjY1QRWT7z8AZ1AvlcdQgYI49FIESmMS6I0WZJ37ER1_eXsXz8goCPAzoKmKT4DbMnr0qUsMWmI5cMAtGscQXdh9Ai0t37mQyaM28a69uVk3UXdFyS9hTSGiOFcBf55rqUP69zU9PYNOkr5CQfORKKkTN9veQ6bW_pXqxci-MDd2fC7ad2gPDbdR5BRnZQKBrfDFhE_JjEyygeZuLLJm0afCYAU0SszmdMaRMDdt4d_rFpEVgZxWPWWhsoropdHZpVeWupt_eXeA1z13oOhw3D4ohxkbFylzcSbt8VdetosTS_MpMW4Ve__PRUCt1aiPbYuZ1y0rSrzN3M2WLgksyYbnpam2CpxgYAUJahcgExSQVnU8y8GeChM8Advgnd6uwGL0lW40]--></g></svg>